<svg width="14" height="14" viewBox="0 0 14 14" fill="none" xmlns="http://www.w3.org/2000/svg">
<path d="M2 0.5H12V-0.5H2V0.5ZM13.5 2V12H14.5V2H13.5ZM12 13.5H2V14.5H12V13.5ZM0.5 12V2H-0.5V12H0.5ZM2 13.5C1.17157 13.5 0.5 12.8284 0.5 12H-0.5C-0.5 13.3807 0.619288 14.5 2 14.5V13.5ZM13.5 12C13.5 12.8284 12.8284 13.5 12 13.5V14.5C13.3807 14.5 14.5 13.3807 14.5 12H13.5ZM12 0.5C12.8284 0.5 13.5 1.17157 13.5 2H14.5C14.5 0.619288 13.3807 -0.5 12 -0.5V0.5ZM2 -0.5C0.619288 -0.5 -0.5 0.619288 -0.5 2H0.5C0.5 1.17157 1.17157 0.5 2 0.5V-0.5Z" fill="#319F01"/>
</svg>
