<svg width="14" height="14" viewBox="0 0 14 14" fill="none" xmlns="http://www.w3.org/2000/svg">
<path d="M0 2C0 0.89543 0.895431 0 2 0H12C13.1046 0 14 0.895431 14 2V12C14 13.1046 13.1046 14 12 14H2C0.89543 14 0 13.1046 0 12V2Z" fill="#319F01"/>
<path d="M3.5 6.41667L5.83333 8.75L11.0833 3.5" stroke="white"/>
<path d="M2 1H12V-1H2V1ZM13 2V12H15V2H13ZM12 13H2V15H12V13ZM1 12V2H-1V12H1ZM2 13C1.44772 13 1 12.5523 1 12H-1C-1 13.6569 0.343146 15 2 15V13ZM13 12C13 12.5523 12.5523 13 12 13V15C13.6569 15 15 13.6569 15 12H13ZM12 1C12.5523 1 13 1.44772 13 2H15C15 0.343146 13.6569 -1 12 -1V1ZM2 -1C0.343146 -1 -1 0.343146 -1 2H1C1 1.44772 1.44772 1 2 1V-1Z" fill="#319F01"/>
</svg>
